<svg width="670" height="180" viewBox="0 0 670 180" fill="none" xmlns="http://www.w3.org/2000/svg">
<rect width="670" height="180" fill="none"/>
<path d="M334.607 21L334.607 158.5" stroke="black" stroke-width="8" stroke-linecap="round"/>
<path d="M433 30.9422C433 25.4514 437.451 21.0002 442.942 21.0002H503.751L516.433 34.3495L530.45 47.6988V148.556C530.45 154.047 525.998 158.498 520.508 158.498H442.942C437.451 158.498 433 154.047 433 148.556V30.9422Z" fill="#F44336"/>
<path d="M503.751 21L517.101 35.0167L530.45 47.6985H513.693C508.203 47.6985 503.751 43.2474 503.751 37.7566V21Z" fill="#9C2F16"/>
<path d="M462.425 84.5683H453.4V107.794H459.34V100.827H462.425C467.07 100.827 470.72 97.4753 470.72 92.6974C470.72 87.9195 467.07 84.5683 462.425 84.5683ZM462.425 95.1859H459.34V90.2421H462.425C463.752 90.2421 464.781 91.2375 464.781 92.6974C464.781 94.1573 463.752 95.1859 462.425 95.1859ZM482.492 84.5683H473.036V107.794H482.492C488.896 107.794 493.774 102.751 493.774 96.1813C493.774 89.6117 488.896 84.5683 482.492 84.5683ZM482.492 102.054H479.141V90.3085H482.492C485.678 90.3085 487.967 92.6311 487.967 96.1813C487.967 99.7316 485.678 102.054 482.492 102.054ZM510.795 90.3085V84.5683H496.528V107.794H502.467V99.8311H510.629V94.091H502.467V90.3085H510.795Z" fill="white"/>
<path d="M221.777 35.9214L221.817 35.9628L221.858 36.0021L235.166 48.6767V148.554C235.166 152.784 231.737 156.214 227.506 156.214H149.942C145.712 156.214 142.282 152.784 142.282 148.554V30.9423C142.282 26.712 145.712 23.2826 149.942 23.2826H209.77L221.777 35.9214Z" fill="none" stroke="#F44336" stroke-width="4.56455"/>
<path d="M169.313 84.5677H160.288V107.794H166.227V100.826H169.313C173.958 100.826 177.608 97.4747 177.608 92.6968C177.608 87.9189 173.958 84.5677 169.313 84.5677ZM169.313 95.1853H166.227V90.2415H169.313C170.64 90.2415 171.669 91.2369 171.669 92.6968C171.669 94.1567 170.64 95.1853 169.313 95.1853ZM189.38 84.5677H179.924V107.794H189.38C195.784 107.794 200.661 102.75 200.661 96.1807C200.661 89.6111 195.784 84.5677 189.38 84.5677ZM189.38 102.054H186.029V90.3078H189.38C192.566 90.3078 194.855 92.6304 194.855 96.1807C194.855 99.731 192.566 102.054 189.38 102.054ZM217.683 90.3078V84.5677H203.416V107.794H209.355V99.8305H217.517V94.0904H209.355V90.3078H217.683Z" fill="#F44336"/>
<path d="M222.529 36.6712L231.734 45.4159H220.694C216.463 45.4159 213.034 41.9866 213.034 37.7562V26.7057L222.448 36.5905L222.488 36.6319L222.529 36.6712Z" fill="none" stroke="#F44336" stroke-width="4.56455"/>
<path opacity="0.5" d="M267 87.6078C265.679 87.6078 264.608 88.6788 264.608 90C264.608 91.3212 265.679 92.3922 267 92.3922L267 87.6078ZM308.692 91.6915C309.626 90.7573 309.626 89.2427 308.692 88.3085L293.468 73.0849C292.534 72.1507 291.019 72.1507 290.085 73.0849C289.151 74.0191 289.151 75.5337 290.085 76.4679L303.617 90L290.085 103.532C289.151 104.466 289.151 105.981 290.085 106.915C291.019 107.849 292.534 107.849 293.468 106.915L308.692 91.6915ZM267 92.3922L307 92.3922L307 87.6078L267 87.6078L267 92.3922Z" fill="black"/>
<path opacity="0.5" d="M405 92.3922C406.321 92.3922 407.392 91.3212 407.392 90C407.392 88.6788 406.321 87.6078 405 87.6078L405 92.3922ZM363.308 88.3085C362.374 89.2427 362.374 90.7573 363.308 91.6915L378.532 106.915C379.466 107.849 380.981 107.849 381.915 106.915C382.849 105.981 382.849 104.466 381.915 103.532L368.383 90L381.915 76.4679C382.849 75.5337 382.849 74.0191 381.915 73.0849C380.981 72.1507 379.466 72.1507 378.532 73.0849L363.308 88.3085ZM405 87.6078L365 87.6078L365 92.3922L405 92.3922L405 87.6078Z" fill="black"/>
</svg>
